<?xml version="1.0" encoding="UTF-8"?>
<svg width="258px" height="258px" viewBox="0 0 258 258" version="1.1" xmlns="http://www.w3.org/2000/svg" xmlns:xlink="http://www.w3.org/1999/xlink">
    <!-- Generator: Sketch 47.1 (45422) - http://www.bohemiancoding.com/sketch -->
    <title>Group</title>
    <desc>Created with Sketch.</desc>
    <defs>
        <circle id="path-1" cx="53" cy="53" r="53"></circle>
        <filter x="-118.4%" y="-108.0%" width="336.8%" height="336.8%" filterUnits="objectBoundingBox" id="filter-2">
            <feOffset dx="0" dy="11" in="SourceAlpha" result="shadowOffsetOuter1"></feOffset>
            <feGaussianBlur stdDeviation="40" in="shadowOffsetOuter1" result="shadowBlurOuter1"></feGaussianBlur>
            <feColorMatrix values="0 0 0 0 0.163763453   0 0 0 0 0   0 0 0 0 0.423841412  0 0 0 0.527032382 0" type="matrix" in="shadowBlurOuter1"></feColorMatrix>
        </filter>
    </defs>
    <g id="r2" stroke="none" stroke-width="1" fill="none" fill-rule="evenodd">
        <g id="Homepage" transform="translate(-70.000000, -812.000000)">
            <g id="Group-3" transform="translate(78.000000, 694.000000)">
                <g id="Group" transform="translate(68.000000, 183.000000)">
                    <g id="Oval">
                        <use fill="black" fill-opacity="1" filter="url(#filter-2)" xlink:href="#path-1"></use>
                        <use fill="#F8F8F8" fill-rule="evenodd" xlink:href="#path-1"></use>
                    </g>
                    <g id="Group-6" transform="translate(20.000000, 28.000000)">
                        <polygon id="Path-18" fill="#FFFFFF" points="15 22 18 27 20 30 30 47 35 46 33 43 36 42 50 36 65 29 68 27 65 24 67 23 69 21 68 19 65 18 69 15 69 13 68 11 64 13 64 11 63 9 64 7 64 5 62 5 59 5 59 3 57 2 49 4 44 6 45 3 43 2 37 4 33 6 29 9 25 15 21 21 21 22 19 20"></polygon>
                        <polygon id="Path-19" fill="#6E42FF" points="14 21 2 29 4 33 10 43 15 54 16 58 31 51 32 49 22 34 19 28 18 28 16 25"></polygon>
                        <path d="M34.12,51.134 C29.605,52.424 19.156,56.552 15.286,58.358 C13.867,54.359 11.029,47.78 8.449,42.62 C3.031,34.106 0.967,31.01 0.064,29.591 C3.16,27.785 11.287,22.109 14.641,19.013 C14.77,19.658 14.899,20.303 15.286,21.077 C16.189,20.303 18.124,18.755 19.027,17.594 C19.285,18.11 19.672,19.142 20.188,20.045 C24.316,12.95 29.347,4.823 35.539,3.791 C38.893,3.275 43.021,-0.853 44.956,1.985 C45.472,2.888 45.472,4.049 45.085,5.081 C45.859,4.694 46.504,4.307 50.374,2.759 C53.47,1.082 57.985,-0.337 59.533,1.985 C60,3 60,3.791 59.791,4.436 C62,3 64.048,3.791 64.693,5.081 C65.338,6.242 64.951,7.532 64.177,8.564 L64.564,8.951 C64.951,9.596 65.08,10.241 64.951,10.886 C64.951,10.886 64.951,11.144 64.822,11.402 C65.08,11.273 65.209,11.144 65.209,11.144 C67.273,10.241 68.95,10.628 69.724,11.918 C70.756,13.806 69.208,16.046 67.273,17.207 C68.047,17.207 68.821,17.594 69.337,18.497 C70.111,19.916 70.111,22.109 66.37,23.915 C66.886,24.044 67.273,24.431 67.66,24.947 C68.692,26.882 68.047,28.946 64.048,30.236 C61.984,31.655 61.339,31.655 59.662,32.687 C56.953,34.364 52.567,36.041 51.148,36.686 C43.666,40.298 41.473,40.943 34.12,42.878 C34.378,43.652 36.313,45.716 36.7,46.361 L31.798,47.909 C32.701,49.07 33.475,50.102 34.12,51.134 Z M24.058,24.431 C24.316,24.947 24.703,25.979 25.219,26.882 C29.476,19.787 34.507,11.66 40.57,10.628 C43.924,10.112 48.052,5.984 49.987,8.822 L50.116,9.209 C51.793,8.693 52.825,8.177 54.115,7.016 C57.211,6.242 58.63,4.307 57.856,2.888 C57.34,2.114 54.889,2.501 51.793,3.92 C50.503,4.307 48.439,5.468 47.278,6.113 C44.569,7.403 43.15,8.435 41.086,9.338 C37.474,11.144 34.12,13.079 33.862,13.466 C33.217,12.434 35.926,10.499 38.893,8.435 C43.279,7.661 44.053,4.178 43.408,3.146 C42.505,1.469 41.344,4.436 36.442,5.468 C30.379,6.758 25.735,14.24 21.349,22.496 C21.607,23.27 21.994,24.173 22.51,25.205 C22.639,25.463 22.768,25.592 22.768,25.85 C23.284,25.334 23.8,24.947 24.058,24.431 Z M51.148,10.628 L50.374,11.015 C50.245,11.402 50.245,11.66 50.116,11.918 C51.019,11.531 51.664,11.273 55.405,9.596 C57.856,8.306 61.081,7.145 63.145,7.79 C64,7.016 64,5 61.597,5.339 C60.823,5.468 59.662,5.984 58.372,7.016 C58.243,7.145 57.985,7.274 57.856,7.403 C56.695,8.048 55.405,8.564 53.857,9.338 C53.083,9.725 52.051,10.112 51.148,10.628 Z M26.38,29.333 C27.541,32.687 30.766,37.976 33.088,40.814 C40.957,38.879 42.376,37.976 50.503,34.493 C51.535,34.106 57.082,31.784 58.888,30.623 C60.952,30.107 61.597,29.849 63.403,28.688 C65.467,28 66.37,27.097 66.112,25.979 C65.338,24.818 61.984,26.366 60.307,27.011 C56.308,29.075 54.502,29.978 52.567,29.333 C54.244,27.398 57.856,26.624 59.662,25.205 C61.597,24.56 62.887,24.044 64.306,22.754 C67.402,21.98 68.645,20.561 68,19.4 C67.097,17.852 65.338,19.271 62.242,20.819 C60.952,21.206 59.146,21.722 57.727,22.496 C55.534,23.528 52.567,26.237 49.987,25.205 C51.277,23.141 55.663,22.367 58.243,20.045 C60.694,19.4 62.758,18.626 64.564,16.82 C67.273,16.046 69.079,14.24 68.434,13.079 L68.305,12.95 C67.66,11.789 66.112,12.047 63.403,13.853 C61.597,15.143 59.146,16.046 56.179,17.465 C52.954,19.271 48.955,22.496 46.504,20.819 C48.052,20.045 50.632,18.884 54.631,16.175 C56.566,15.659 57.727,15.143 59.146,13.853 C62.242,13.079 63.79,11.273 63.016,9.854 L62.887,9.725 C62.371,8.951 59.92,9.338 56.824,10.886 C55.534,11.273 53.47,12.305 52.309,12.95 C49.6,14.24 48.181,15.272 46.117,16.175 C42.505,17.981 39.151,19.916 38.893,20.303 C38.248,19.271 40.957,17.336 43.924,15.272 C48.31,14.498 49.084,11.015 48.439,9.983 C47.536,8.306 46.504,11.273 41.473,12.305 C35.41,13.595 30.766,21.077 26.38,29.333 Z M19.672,25.85 C19.801,26.495 20.059,27.14 20.317,27.914 C20.575,27.656 20.962,27.398 21.349,27.011 C21.22,26.753 21.091,26.366 20.833,25.979 C19.93,24.173 19.156,22.367 18.511,20.948 C17.995,21.464 16.189,22.625 15.931,22.754 C16.576,24.173 17.35,25.721 18.253,27.14 C18.769,26.753 19.285,26.237 19.672,25.85 Z M3.031,30.107 C3.676,31.139 4.579,32.171 6.643,35.525 C9.223,33.848 13.351,31.01 16.576,28.43 C15.157,25.979 13.996,23.528 13.609,22.496 C11.158,24.689 5.353,28.946 3.031,30.107 Z M23.542,27.785 C23.026,28.301 21.349,29.462 20.962,29.591 C23.155,34.235 27.154,41.072 30.766,46.361 L33.733,45.329 C31.54,43.394 25.735,33.332 23.542,27.785 Z M30.895,50.231 C27.541,46.103 19.672,32.558 18.64,29.333 C16.189,31.526 9.997,35.912 7.675,37.202 C9.739,40.169 15.028,51.392 16.576,55.907 C19.414,54.617 27.541,51.263 30.895,50.231 Z M24.832,50.102 C23.8,50.747 22.897,50.231 22.381,49.457 C21.994,48.683 21.994,47.522 23.155,46.877 C24.187,46.232 25.09,47.006 25.606,47.78 C25.993,48.554 25.993,49.457 24.832,50.102 Z M14,21 L2,30 L14,21 Z" id="J" fill="#2D2D2D"></path>
                    </g>
                </g>
            </g>
        </g>
    </g>
</svg>