<?xml version="1.0" encoding="UTF-8"?>
<svg width="225px" height="225px" viewBox="0 0 225 225" version="1.1" xmlns="http://www.w3.org/2000/svg" xmlns:xlink="http://www.w3.org/1999/xlink">
    <!-- Generator: Sketch 47.1 (45422) - http://www.bohemiancoding.com/sketch -->
    <title>Group 4</title>
    <desc>Created with Sketch.</desc>
    <defs>
        <ellipse id="path-1" cx="36.5" cy="37.5" rx="36.5" ry="37.5"></ellipse>
        <filter x="-171.9%" y="-152.7%" width="443.8%" height="434.7%" filterUnits="objectBoundingBox" id="filter-2">
            <feOffset dx="0" dy="11" in="SourceAlpha" result="shadowOffsetOuter1"></feOffset>
            <feGaussianBlur stdDeviation="40" in="shadowOffsetOuter1" result="shadowBlurOuter1"></feGaussianBlur>
            <feColorMatrix values="0 0 0 0 0.163763453   0 0 0 0 0   0 0 0 0 0.423841412  0 0 0 0.527032382 0" type="matrix" in="shadowBlurOuter1"></feColorMatrix>
        </filter>
    </defs>
    <g id="r2" stroke="none" stroke-width="1" fill="none" fill-rule="evenodd">
        <g id="Homepage" transform="translate(-323.000000, -1223.000000)">
            <g id="Group-4" transform="translate(399.000000, 1287.000000)">
                <g id="Oval-Copy">
                    <use fill="black" fill-opacity="1" filter="url(#filter-2)" xlink:href="#path-1"></use>
                    <use fill="#F8F8F8" fill-rule="evenodd" xlink:href="#path-1"></use>
                </g>
                <g id="Group-6" transform="translate(16.000000, 24.000000)">
                    <polygon id="Path-18" fill="#FFFFFF" points="9 13.4444444 10.8888889 16.5555556 12.1481481 18.4222222 18.4444444 29 21.5925926 28.3777778 20.3333333 26.5111111 22.2222222 25.8888889 31.037037 22.1555556 40.4814815 17.8 42.3703704 16.5555556 40.4814815 14.6888889 41.7407407 14.0666667 43 12.8222222 42.3703704 11.5777778 40.4814815 10.9555556 43 9.08888889 43 7.84444444 42.3703704 6.6 39.8518519 7.84444444 39.8518519 6.6 39.2222222 5.35555556 39.8518519 4.11111111 39.8518519 2.86666667 38.5925926 2.86666667 36.7037037 2.86666667 36.7037037 1.62222222 35.4444444 1 30.4074074 2.24444444 27.2592593 3.48888889 27.8888889 1.62222222 26.6296296 1 22.8518519 2.24444444 20.3333333 3.48888889 17.8148148 5.35555556 15.2962963 9.08888889 12.7777778 12.8222222 12.7777778 13.4444444 11.5185185 12.2"></polygon>
                    <polygon id="Path-19" fill="#6E42FF" points="8.6 13 1 18.1891892 2.26666667 20.7837838 6.06666667 27.2702703 9.23333333 34.4054054 9.86666667 37 19.3666667 32.4594595 20 31.1621622 13.6666667 21.4324324 11.7666667 17.5405405 11.1333333 17.5405405 9.86666667 15.5945946"></polygon>
                    <path d="M21.4097305,31.484271 C18.5713192,32.2906511 12.0024247,34.8710677 9.56950075,36 C8.67742864,33.5002214 6.89328444,29.3876825 5.27133516,26.1621617 C1.86524167,20.8400525 0.567682248,18.90474 0,18.0177218 C1.94633914,16.8887896 7.05547937,13.3407168 9.16401343,11.4054043 C9.24511089,11.8085944 9.32620836,12.2117845 9.56950075,12.6956126 C10.137183,12.2117845 11.353645,11.2441283 11.9213272,10.5183861 C12.0835221,10.8409382 12.3268145,11.4860423 12.6512044,12.0505085 C15.2463232,7.61541743 18.4091243,2.53522225 22.3018026,1.8901181 C24.4103367,1.56756603 27.0054555,-1.01285057 28.2219175,0.761185842 C28.5463073,1.32565197 28.5463073,2.05139414 28.3030149,2.69649829 C28.7895997,2.45458423 29.195087,2.21267018 31.6280109,1.24501395 C33.5743501,0.196719711 36.4127613,-0.690298494 37.3859309,0.761185842 C37.6795163,1.39566328 37.6795163,1.8901181 37.5481258,2.2933082 C38.9368413,1.39566328 40.2243421,1.8901181 40.6298294,2.69649829 C41.0353168,3.42224046 40.7920244,4.22862064 40.3054396,4.87372479 L40.548732,5.11563885 C40.7920244,5.51882894 40.8731218,5.92201904 40.7920244,6.32520913 C40.7920244,6.32520913 40.7920244,6.48648517 40.7109269,6.6477612 C40.8731218,6.56712319 40.9542193,6.48648517 40.9542193,6.48648517 C42.2517787,5.92201904 43.3060458,6.16393309 43.7926305,6.97031328 C44.4414103,8.15050382 43.4682407,9.55072988 42.2517787,10.276472 C42.7383635,10.276472 43.2249483,10.5183861 43.5493382,11.0828522 C44.0359229,11.9698704 44.0359229,13.3407168 41.6840965,14.469649 C42.0084863,14.550287 42.2517787,14.7922011 42.4950711,15.1147532 C43.1438508,16.3243234 42.7383635,17.6145317 40.2243421,18.4209119 C38.9267827,19.3079301 38.5212954,19.3079301 37.4670284,19.9530343 C35.7639816,21.0013285 33.0066678,22.0496228 32.1145957,22.4528129 C27.4109428,24.7106774 26.0322859,25.1138675 21.4097305,26.3234378 C21.5719254,26.8072659 22.7883874,28.0974742 23.0316798,28.5006643 L19.9499761,29.4683205 C20.5176584,30.1940627 21.0042432,30.8391668 21.4097305,31.484271 Z M15.0841283,14.7922011 C15.2463232,15.1147532 15.4896156,15.7598573 15.8140055,16.3243234 C18.4902218,11.8892324 21.6530229,6.80903724 25.4646037,6.16393309 C27.5731377,5.84138102 30.1682566,3.26096442 31.3847186,5.03500083 L31.465816,5.27691489 C32.5200831,4.95436281 33.1688628,4.63181074 33.9798374,3.90606857 C35.9261765,3.42224046 36.8182486,2.21267018 36.3316639,1.32565197 C36.007274,0.841823861 34.4664222,1.08373792 32.5200831,1.97075612 C31.7091084,2.21267018 30.411549,2.93841235 29.6816718,3.34160244 C27.9786251,4.14798263 27.086553,4.79308678 25.7889935,5.35755291 C23.5182646,6.48648517 21.4097305,7.69605545 21.2475356,7.9379695 C20.8420482,7.29286535 22.545095,6.08329507 24.4103367,4.79308678 C27.1676504,4.30925866 27.6542352,2.13203216 27.2487479,1.48692801 C26.6810656,0.438633767 25.9511885,2.2933082 22.8694848,2.93841235 C19.057904,3.74479253 16.1383953,8.42179762 13.3810816,13.5826308 C13.5432765,14.0664589 13.7865689,14.6309251 14.1109587,15.2760292 C14.1920562,15.4373052 14.2731537,15.5179433 14.2731537,15.6792193 C14.5975435,15.3566672 14.9219334,15.1147532 15.0841283,14.7922011 Z M32.1145957,6.16393309 L31.6280109,6.40584715 C31.5469135,6.6477612 31.5469135,6.80903724 31.465816,6.97031328 C32.0334983,6.72839922 32.4389856,6.56712319 34.790812,5.51882894 C36.3316639,4.71244876 38.3591005,3.98670659 39.6566599,4.38989668 C40.1941663,3.90606857 40.1941663,2.64586512 38.6834903,2.85777433 C38.1969055,2.93841235 37.4670284,3.26096442 36.6560537,3.90606857 C36.5749562,3.98670659 36.4127613,4.06734461 36.3316639,4.14798263 C35.6017867,4.55117272 34.790812,4.87372479 33.8176425,5.35755291 C33.3310577,5.59946696 32.682278,5.84138102 32.1145957,6.16393309 Z M16.5438826,17.8564458 C17.2737598,19.9530343 19.3011964,23.2591931 20.7609508,25.0332295 C25.7078961,23.8236592 26.5999682,23.2591931 31.7091084,21.0819665 C32.3578881,20.8400525 35.8450791,19.3885682 36.9804436,18.662826 C38.278003,18.3402739 38.6834903,18.1789979 39.8188548,17.4532557 C41.1164142,17.0231863 41.6840965,16.4587201 41.5219016,15.7598573 C41.0353168,15.0341151 38.9267827,16.0017714 37.8725157,16.4049615 C35.3584943,17.6951698 34.2231298,18.2596359 33.0066678,17.8564458 C34.0609349,16.6468755 36.3316639,16.1630474 37.4670284,15.2760292 C38.6834903,14.8728391 39.494465,14.550287 40.3865371,13.7439068 C42.3328762,13.2600787 43.1143037,12.3730605 42.7088164,11.6473184 C42.1411341,10.6796621 41.0353168,11.5666803 39.0889776,12.5343366 C38.278003,12.7762506 37.1426385,13.0988027 36.2505664,13.5826308 C34.8719095,14.227735 33.0066678,15.9211334 31.3847186,15.2760292 C32.1956932,13.9858209 34.953007,13.5019928 36.5749562,12.0505085 C38.1158081,11.6473184 39.4133675,11.1634903 40.548732,10.034558 C42.2517787,9.55072988 43.3871432,8.42179762 42.9816559,7.69605545 L42.9005584,7.61541743 C42.4950711,6.88967526 41.5219016,7.0509513 39.8188548,8.17988356 C38.6834903,8.98626375 37.1426385,9.55072988 35.2773968,10.4377481 C33.2499602,11.5666803 30.7359388,13.5826308 29.195087,12.5343366 C30.1682566,12.0505085 31.7902059,11.3247663 34.3042273,9.6313679 C35.5206892,9.30881582 36.2505664,8.98626375 37.1426385,8.17988356 C39.0889776,7.69605545 40.0621472,6.56712319 39.5755624,5.68010498 L39.494465,5.59946696 C39.1700751,5.11563885 37.6292233,5.35755291 35.6828841,6.32520913 C34.8719095,6.56712319 33.5743501,7.21222734 32.8444729,7.61541743 C31.1414262,8.42179762 30.2493541,9.06690176 28.9517946,9.6313679 C26.6810656,10.7603002 24.5725316,11.9698704 24.4103367,12.2117845 C24.0048493,11.5666803 25.7078961,10.3571101 27.5731377,9.06690176 C30.3304515,8.58307365 30.8170363,6.40584715 30.411549,5.760743 C29.8438667,4.71244876 29.195087,6.56712319 26.0322859,7.21222734 C22.2207051,8.01860752 19.3011964,12.6956126 16.5438826,17.8564458 Z M12.3268145,15.6792193 C12.407912,16.0824094 12.5701069,16.4855995 12.7323018,16.9694276 C12.8944968,16.8081516 13.1377892,16.6468755 13.3810816,16.4049615 C13.2999841,16.2436854 13.2188866,16.0017714 13.0566917,15.7598573 C12.4890095,14.6309251 12.0024247,13.5019928 11.5969373,12.6149746 C11.2725475,12.9375267 10.137183,13.6632688 9.97498807,13.7439068 C10.3804754,14.6309251 10.8670602,15.5985813 11.4347424,16.4855995 C11.7591323,16.2436854 12.0835221,15.9211334 12.3268145,15.6792193 Z M1.86524167,18.3402739 C2.27072899,18.9853781 2.83841124,19.6304822 4.13597066,21.7270707 C5.75791994,20.6787765 8.35303879,18.90474 10.3804754,17.2919797 C9.48840328,15.7598573 8.75852611,14.227735 8.51523372,13.5826308 C6.9743819,14.9534771 3.32499602,17.6145317 1.86524167,18.3402739 Z M14.7597384,16.8887896 C14.4353486,17.2113417 13.3810816,17.9370838 13.1377892,18.0177218 C14.5164461,20.9206905 17.0304674,25.1945055 19.3011964,28.5006643 L21.1664381,27.8555601 C19.7877812,26.6459898 16.1383953,20.3562244 14.7597384,16.8887896 Z M19.3822939,30.9198048 C17.2737598,28.3393882 12.3268145,19.8723963 11.6780348,17.8564458 C10.137183,19.2272921 6.24450473,21.9689848 4.78475037,22.7753649 C6.0823098,24.6300394 9.40730582,31.645547 10.3804754,34.4678776 C12.1646196,33.6614975 17.2737598,31.564909 19.3822939,30.9198048 Z M15.5707131,30.8391668 C14.9219334,31.2423569 14.3542511,30.9198048 14.0298613,30.4359767 C13.7865689,29.9521486 13.7865689,29.2264064 14.5164461,28.8232163 C15.1652258,28.4200262 15.732908,28.9038544 16.0572979,29.3876825 C16.3005903,29.8715106 16.3005903,30.4359767 15.5707131,30.8391668 Z M8.76104076,12.6474798 L1.21709062,18.2733881 L8.76104076,12.6474798 Z" id="J" fill="#2D2D2D"></path>
                </g>
            </g>
        </g>
    </g>
</svg>