<?xml version="1.0" encoding="UTF-8"?>
<svg width="56px" height="26px" viewBox="0 0 56 26" version="1.1" xmlns="http://www.w3.org/2000/svg" xmlns:xlink="http://www.w3.org/1999/xlink">
    <!-- Generator: Sketch 47.1 (45422) - http://www.bohemiancoding.com/sketch -->
    <title>Group 7 Copy</title>
    <desc>Created with Sketch.</desc>
    <defs></defs>
    <g id="r2" stroke="none" stroke-width="1" fill="none" fill-rule="evenodd">
        <g id="work--pathgather-1" transform="translate(-967.000000, -460.000000)">
            <g id="Group-7-Copy" transform="translate(995.000000, 473.000000) scale(-1, 1) rotate(-270.000000) translate(-995.000000, -473.000000) translate(982.000000, 445.000000)">
                <path d="M24,41 C20.6666667,41 17.3333333,41 14,41 C10.6666667,41 7.33333333,41 4,41 L5,52 L6,53 L16,53 L23,55 L24,41 Z" id="Path-16" fill="#394ED9"></path>
                <path d="M23,37 C19,37.6666667 16,38 14,38 C12,38 9,37.6666667 5,37 L6,40 L9,41 L20,41 L22,39 L23,37 Z" id="Path-17" fill="#FFFFFF"></path>
                <path d="M8,37 C4.66666667,34.3333333 3,32 3,30 C3,28 2.33333333,25.6666667 1,23 L3,16 C2.33333333,14 2.33333333,13 3,13 C3.66666667,13 4.33333333,13.3333333 5,14 L6,16 L7,8 L8,2 L10,2 L11,3 L12,7 L11,14 L12,14 L14,14 L15,15 L18,14 L19,17 L22,16 L23,19 L23,21 L23,26 C21.6666667,32 21,34.3333333 21,33 C21,31.6666667 20.3333333,33.3333333 19,38 L8,37 Z" id="Path-5" fill="#FFFFFF"></path>
                <path d="M25.6,39.7 C24.7,43.3 23.4,51.9 23.2,55.2 C18.2,54.3 8.3,53.3 4.5,53.6 C4.5,50.8 3.8,43.1 3.1,39.7 C4.1,40 4.4,40 4.7,40.1 C4.8,39.1 4.4,37.8 3.8,36.2 C4.3,36.2 5.1,36.3 5.9,36.4 C3,31.1 -0.5,23.9 1.2,19.6 C2.1,17.1 0.9,12.8 3.6,12.6 C4.4,12.6 5.1,13 5.7,13.7 C5.7,12.3 5.8,10.6 6.2,7.1 C6.3,4.3 6.8,0.7 9.2,0.7 L9.4,0.7 C11.9,0.7 12.5,3.7 12,7.8 C12.4,10.1 12.3,11 11.9,13.4 L11.8,13.8 C12.1,13.2 12.5,12.7 13.3,12.7 L13.4,12.7 C15,12.7 15.5,13.9 15.6,14.9 C15.9,14.1 16.5,13.7 17.4,13.7 L17.6,13.7 C18.9,13.7 19.4,14.8 19.6,16.2 C19.8,15.7 20.3,15.5 21.1,15.5 L21.2,15.5 C23.7,15.5 24.1,19.1 23.4,25 C22.5,32.9 20.5,34.2 20.1,36.6 C20.7,36.7 22.8,36.2 23.4,36.2 L22.4,40.1 C23.2,40 24.4,39.9 25.6,39.7 Z M2.6,19.7 C1.2,24.1 4.4,30.7 8,36.5 C10.7,37 15.3,37.1 18.2,36.6 C18.8,34.1 21.1,32.3 21.9,25.5 C22.4,20.8 22.6,16.9 21.1,16.9 L20.9,16.9 C19.3,16.9 19.6,19.8 19.9,20.5 C19.3,20.5 18.4,19.7 18.6,18.2 C18.8,16.5 18.5,15.1 17.5,15.1 L17.4,15.1 C15.7,15.1 15.4,18.1 15.9,19 C14.8,19 14.8,18.1 14.8,17.1 C14.8,16.4 14.8,14.1 13.3,14.1 L13.2,14.1 C12.1,14.1 11.6,16 11.6,17.6 C11.6,18.7 11.6,19 11.9,19.7 C10.3,19.7 10.4,16.2 10.4,12.3 C11,10.3 10.8,9.1 10.5,7.8 C11.2,5.4 11,2.1 9.3,2.1 L9.2,2.1 C7.8,2.1 7.7,4.5 7.8,7.3 C7.3,8.8 7.2,10.9 7.4,12.8 C7.2,14.2 7.1,16.8 7,18.1 C6.8,21.2 6.8,24.2 7,24.5 C6.1,24.5 5.8,22 5.6,19.2 C6.7,16 4.7,14.1 3.8,14.1 C2.3,14.1 3.8,15.9 2.6,19.7 Z M5.9,37.8 C6.1,38.8 6.1,39.6 6,40.1 C9.3,40.3 19.4,40.4 21.1,40.1 L21.5,37.8 C19.4,38.5 10.4,38.5 5.9,37.8 Z M23.5,41.5 C19.4,42.1 7.2,42.1 4.7,41.5 C5.2,44 5.8,49.9 5.7,51.9 C8.5,51.7 18.1,52.6 21.8,53.2 C22,50.9 22.9,44.1 23.5,41.5 Z M21.1,45.4 C21.1,46.4 20.4,46.8 19.7,46.8 C19,46.8 18.2,46.3 18.2,45.3 C18.2,44.3 19,44 19.7,44 C20.4,44 21.1,44.4 21.1,45.4 Z" id="M" fill="#2D2D2D"></path>
            </g>
        </g>
    </g>
</svg>